<svg xmlns="http://www.w3.org/2000/svg" xmlns:xlink="http://www.w3.org/1999/xlink" xml:space="preserve" version="1.1" style="shape-rendering:geometricPrecision;text-rendering:geometricPrecision;image-rendering:optimizeQuality;" viewBox="0 0 0.574 1.04375" x="0px" y="0px" fill-rule="evenodd" clip-rule="evenodd"><defs><style type="text/css">
   
    .fil0 {fill:#3c4257}
   
  </style></defs><g><path class="fil0" d="M0.186 0.463l0.031 -0.095 -0.08 -0.058c-0.006,-0.004 -0.007,-0.013 -0.003,-0.018 0.003,-0.004 0.007,-0.006 0.011,-0.006l0.099 0 0.031 -0.094c0.002,-0.007 0.009,-0.011 0.016,-0.009 0.004,0.002 0.007,0.005 0.008,0.009l0.031 0.094 0.099 0c0.008,0 0.013,0.006 0.013,0.013 0,0.005 -0.002,0.008 -0.005,0.011l-0.081 0.058 0.031 0.095c0.003,0.007 -0.001,0.014 -0.008,0.016 -0.004,0.002 -0.009,0.001 -0.012,-0.002l-0.08 -0.058 -0.081 0.058c-0.005,0.004 -0.013,0.003 -0.018,-0.003 -0.002,-0.003 -0.003,-0.007 -0.002,-0.011zm0.31 -0.463l-0.418 0c-0.021,0 -0.041,0.009 -0.055,0.023l0 0c-0.014,0.014 -0.023,0.034 -0.023,0.055l0 0.731 0 0c0,0.005 0.002,0.011 0.005,0.015 0.009,0.012 0.025,0.014 0.037,0.005l0.245 -0.184 0.243 0.183c0.005,0.004 0.011,0.007 0.018,0.007 0.014,0 0.026,-0.012 0.026,-0.026l0 -0.731c0,-0.02 -0.008,-0.039 -0.022,-0.053l-0.001 -0.002c-0.014,-0.014 -0.034,-0.023 -0.055,-0.023z"/></g><text x="0" y="15.835" fill="#000000" font-size="5px" font-weight="bold" font-family="'Helvetica Neue', Helvetica, Arial-Unicode, Arial, Sans-serif">Created by Nociconist</text><text x="0" y="20.835" fill="#000000" font-size="5px" font-weight="bold" font-family="'Helvetica Neue', Helvetica, Arial-Unicode, Arial, Sans-serif">from the Noun Project</text></svg>