<svg xmlns="http://www.w3.org/2000/svg" xmlns:xlink="http://www.w3.org/1999/xlink" version="1.1" x="0px" y="0px" viewBox="0 0 100 100" style="enable-background:new 0 0 100 100;" xml:space="preserve"><path d="M72.5,52.5h-45c-1.4,0-2.5-1.1-2.5-2.5s1.1-2.5,2.5-2.5h45c1.4,0,2.5,1.1,2.5,2.5S73.9,52.5,72.5,52.5z M75,69.5  c0-1.4-1.1-2.5-2.5-2.5h-45c-1.4,0-2.5,1.1-2.5,2.5s1.1,2.5,2.5,2.5h45C73.9,72,75,70.9,75,69.5z M75,30.5c0-1.4-1.1-2.5-2.5-2.5  h-45c-1.4,0-2.5,1.1-2.5,2.5s1.1,2.5,2.5,2.5h45C73.9,33,75,31.9,75,30.5z"/></svg>