<svg width="567" height="887" viewBox="0 0 567 887" fill="none" xmlns="http://www.w3.org/2000/svg">
<path d="M56.0471 317.178C70.1385 198.012 135.268 92.6146 231.144 34.4172C361.97 -45.017 477.12 -40.6158 550.675 -22.9387C648.227 0.497461 735.763 60.6422 810.857 155.834C888.141 253.776 923.21 370.958 909.627 485.823C896.455 597.214 848.97 722.098 758.535 793.355C680.025 855.217 586.013 868.374 491.38 834.8C445.993 818.692 375.429 772.09 339.094 751.596C330.873 746.951 323.114 742.575 317.88 739.937C228.966 694.902 132.716 645.005 89.1973 563.836C48.3221 487.578 45.9439 402.617 56.0471 317.178Z" fill="#bde0db"/>
</svg>
